<svg width="49" height="57" viewBox="0 0 202 157" fill="none" xmlns="http://www.w3.org/2000/svg">
<path d="M200.3 91.5582C200.891 87.6816 201.22 83.7025 201.259 79.6602C201.668 36.938 170.094 1.9431 130.728 1.49015C91.3632 1.03719 59.125 35.2978 58.7157 78.0201C58.5507 95.2443 63.5948 111.214 72.2387 124.169C80.7801 124.108 88.7392 121.282 95.3907 116.479C86.371 106.717 80.8402 93.1808 80.983 78.2763C81.2644 48.8954 103.433 25.3425 130.497 25.6539C157.561 25.9653 179.273 50.0232 178.992 79.404C178.769 102.682 164.797 122.296 145.532 129.284C169.798 129.563 190.817 114.052 200.3 91.5582Z" fill="#FFC51E"/>
<path d="M145.531 129.283C151.383 110.212 151.861 93.4697 149.805 79.5157C149.514 99.4868 142.824 117.771 131.884 132.073C131.59 132.448 131.295 132.823 131.001 133.198C130.872 133.366 130.743 133.534 130.605 133.702C130.311 134.057 130.017 134.422 129.723 134.777C129.585 134.945 129.447 135.112 129.3 135.28C129.006 135.635 128.703 135.98 128.391 136.335C128.253 136.493 128.115 136.65 127.977 136.808C127.656 137.163 127.343 137.518 127.022 137.863C126.894 138 126.756 138.148 126.627 138.286C126.288 138.641 125.948 139.005 125.609 139.36C125.508 139.468 125.397 139.576 125.287 139.685C124.911 140.069 124.535 140.453 124.159 140.827C124.104 140.876 124.058 140.925 124.003 140.974C119.362 145.501 114.227 149.435 108.69 152.667C115.193 154.873 122.086 156.107 129.245 156.19C164.876 156.6 194.665 128.564 200.299 91.5576C190.816 114.052 169.797 129.562 145.531 129.283Z" fill="#2B70E4"/>
<path d="M143.206 78.9946C143.371 61.7603 138.335 45.8004 129.683 32.8359C121.141 32.897 113.182 35.7229 106.54 40.5256C115.55 50.2879 121.081 63.8239 120.938 78.7384C120.657 108.109 98.4886 131.662 71.4244 131.351C44.3602 131.04 22.6481 106.982 22.9295 77.6107C23.0344 66.6588 26.1845 56.5186 31.4984 48.1259C16.2634 68.7615 12.1421 97.7697 23.1179 123.377C27.0994 132.673 32.684 140.604 39.3466 146.973C48.8992 152.321 59.7185 155.393 71.1928 155.525C110.558 155.978 142.796 121.707 143.206 78.9946Z" fill="#2B70E4"/>
<path d="M23.1183 123.372C12.1425 97.7653 16.2638 68.7572 31.4988 48.1216C36.6376 39.9858 43.8051 33.4865 52.1935 29.4806L52.1651 29.5998C53.161 29.0237 54.1748 28.4778 55.2156 27.9521C54.1748 28.4778 53.161 29.0237 52.1651 29.5998C45.4339 52.2052 47.6228 72.2048 52.5512 87.9244C52.2194 84.6247 52.0696 81.2972 52.1017 77.942C52.3015 57.0936 59.4799 38.068 71.1955 23.446C71.3794 23.2191 71.5632 23.0022 71.7471 22.7753C72.0689 22.3807 72.3907 21.9861 72.7215 21.6016C72.9329 21.3451 73.1533 21.0987 73.3739 20.8424C73.7046 20.4678 74.0352 20.0932 74.375 19.7187C74.5679 19.5019 74.7608 19.2851 74.9536 19.0782C75.4586 18.5264 75.9726 17.9846 76.4865 17.4528C76.67 17.2658 76.8534 17.0886 77.0369 16.9016C77.4222 16.5177 77.8075 16.1338 78.1927 15.7598C78.4037 15.5531 78.6145 15.3564 78.8255 15.1497C79.2472 14.7563 79.678 14.363 80.0997 13.9695C80.2555 13.8319 80.4114 13.6843 80.5672 13.5467C81.1445 13.0356 81.7217 12.5344 82.3079 12.0433C82.4819 11.8959 82.6651 11.7487 82.8391 11.6013C83.2879 11.2281 83.7275 10.8647 84.1852 10.5115C84.3866 10.3545 84.5789 10.1974 84.7803 10.0404C85.3112 9.62833 85.8513 9.21634 86.4003 8.8144C86.4917 8.75571 86.5741 8.68696 86.6656 8.61831C87.297 8.15758 87.9373 7.70691 88.5866 7.2663C88.7696 7.13896 88.9433 7.02147 89.1263 6.89413C89.62 6.57121 90.1229 6.23845 90.6257 5.9256C90.8177 5.79837 91.0096 5.68109 91.2016 5.55385C91.8688 5.14332 92.5362 4.72283 93.2213 4.33242C86.7278 2.12683 79.8251 0.902309 72.6753 0.820039C33.3101 0.367084 1.07194 34.6278 0.662625 77.3501C0.372739 107.607 16.1385 133.996 39.347 146.969C32.6844 140.599 27.0998 132.669 23.1183 123.372Z" fill="#FFC51E"/>
</svg>
